# xmcd
#
# Track frame offsets:
# 150
# 14063
# 31353
# 50565
# 72740
# 98485
# 115436
# 128276
# 148273
# 171886
# 187819
# 202337
# 219366
#
# Disc length: 3170 seconds
#
# Revision: 0
# Processed by: cddbd v1.5.1PL2 Copyright (c) Steve Scherf et al.
# Submitted via: Axialis_AX_CDPlayer 2.6
#
DISCID=c40c600d
DTITLE=A Pocketful Of Blues - Songs And Sessions
DYEAR=1900
DGENRE=
TTITLE0=Rabbit's Corner
TTITLE1=Swinging Paradise
TTITLE2=Up And In Love
TTITLE3=L'amour, L'amour
TTITLE4=Dirty Love
TTITLE5=Recession Blues
TTITLE6=We're The Meanest Cats In The Neighborhood
TTITLE7=Cool Swing
TTITLE8=How Do You Call
TTITLE9=Jammin' With Dionysus
TTITLE10=Let It Ride!
TTITLE11=Children's Birthday Party
TTITLE12=Sleeping Hour
EXTD=
EXTT0=
EXTT1=
EXTT2=
EXTT3=
EXTT4=
EXTT5=
EXTT6=
EXTT7=
EXTT8=
EXTT9=
EXTT10=
EXTT11=
EXTT12=
PLAYORDER=
